<svg xmlns="http://www.w3.org/2000/svg" width="1280.000000pt" height="1169.000000pt" viewBox="0 0 1280.000000 1169.000000" preserveAspectRatio="xMidYMid meet"><metadata>
Created by potrace 1.15, written by Peter Selinger 2001-2017
</metadata><g transform="translate(0.000000,1169.000000) scale(0.100000,-0.100000)" fill="#000000" stroke="none"><path d="M1877 11673 c-16 -27 -66 -240 -71 -303 -9 -131 -67 -301 -191 -569 -60 -129 -65 -136 -102 -148 -34 -12 -47 -26 -107 -123 -37 -61 -71 -112 -75 -114 -10 -7 -373 22 -497 39 -131 18 -321 63 -421 100 -39 15 -102 46 -138 70 -73 48 -158 72 -202 58 -51 -17 -68 -55 -67 -146 1 -100 24 -166 95 -272 97 -145 254 -278 435 -369 106 -53 182 -77 369 -115 l139 -28 69 -206 68 -206 -60 -109 c-73 -132 -121 -236 -149 -322 -17 -55 -21 -97 -25 -275 -7 -382 9 -423 206 -516 62 -29 66 -29 356 -43 161 -8 295 -16 297 -18 7 -7 -27 -117 -95 -305 -76 -210 -77 -223 -32 -311 30 -59 54 -76 98 -69 36 6 141 70 149 91 2 6 15 83 28 171 12 88 26 153 29 145 17 -40 247 -850 247 -867 0 -11 12 -38 27 -59 15 -21 153 -226 307 -454 l279 -415 59 -165 59 -165 -6 -90 -7 -90 95 -219 95 -218 288 -211 c247 -180 330 -234 569 -370 154 -88 281 -161 283 -162 1 -1 -18 -87 -42 -191 -156 -665 -265 -1434 -266 -1884 l0 -125 -130 -405 c-122 -377 -133 -408 -169 -445 -52 -55 -94 -112 -122 -165 -21 -40 -24 -58 -23 -160 1 -161 2 -166 67 -179 237 -48 432 -59 661 -37 93 9 170 17 171 19 1 1 -5 96 -12 212 -8 116 -12 251 -9 300 8 152 112 622 221 1000 59 203 146 478 154 488 4 4 20 -98 35 -225 16 -133 49 -335 77 -471 l49 -238 0 -360 0 -361 -90 -96 c-94 -99 -184 -224 -221 -307 -30 -68 -36 -154 -15 -210 22 -56 92 -128 158 -161 154 -78 401 -88 600 -23 85 28 179 81 216 123 44 50 106 159 142 248 l30 77 -15 199 c-9 112 -31 285 -51 398 -32 182 -35 221 -41 464 l-6 265 28 90 c36 120 53 310 61 700 l6 310 69 415 c73 439 109 590 140 590 9 0 109 -15 221 -34 664 -113 1165 -160 1443 -137 294 24 672 97 1184 227 162 41 295 73 297 71 2 -2 9 -39 14 -83 6 -46 21 -100 36 -131 35 -73 151 -178 314 -284 74 -49 143 -94 152 -101 9 -7 83 -142 163 -299 l145 -286 0 -224 0 -225 -174 -519 c-181 -541 -334 -960 -430 -1176 -31 -70 -56 -129 -56 -132 0 -7 102 -82 135 -100 43 -21 173 -47 242 -47 72 0 195 22 288 50 107 33 265 101 265 114 0 6 -21 74 -45 151 -25 76 -45 144 -45 149 0 6 18 -7 40 -29 22 -21 42 -37 44 -34 3 3 272 976 360 1304 l21 80 -20 96 -21 96 24 29 c14 16 54 60 90 97 l65 69 77 -79 78 -78 112 -275 c112 -273 113 -276 131 -415 81 -613 126 -1233 110 -1495 -6 -91 -12 -116 -43 -185 -65 -144 -68 -186 -15 -243 48 -52 94 -67 202 -66 87 0 113 5 205 36 141 48 298 118 345 154 45 34 85 113 85 167 0 21 9 55 20 77 27 53 26 65 -14 146 -43 88 -89 217 -126 358 -24 92 -36 185 -70 541 -39 418 -42 436 -91 637 l-51 207 27 178 c35 223 39 434 11 527 -36 120 -136 282 -288 467 -46 56 -93 113 -105 128 -18 22 -33 89 -87 412 -76 443 -83 560 -47 745 11 55 52 263 91 464 39 201 79 405 88 454 l17 89 83 -2 c45 -1 82 1 82 6 0 4 -16 19 -35 33 -19 14 -35 28 -35 33 0 4 21 7 47 7 l47 0 -59 61 -60 61 70 -7 70 -7 -79 81 -80 80 24 43 c13 24 52 89 85 145 l61 102 51 -52 c50 -51 51 -54 83 -187 30 -128 31 -145 30 -325 -2 -382 41 -578 155 -703 89 -98 265 -224 459 -329 152 -81 151 -71 -17 137 -58 73 -66 75 106 -38 127 -85 138 -75 52 45 -36 51 -65 95 -65 99 0 3 24 -13 53 -37 83 -71 87 -73 97 -63 6 6 -10 40 -43 89 -80 119 -90 135 -85 135 2 0 54 -38 114 -85 105 -82 134 -98 134 -74 0 6 -34 70 -75 143 -41 73 -75 135 -75 138 0 4 47 -16 105 -44 98 -46 152 -57 128 -25 -6 6 -60 74 -121 149 -97 120 -136 181 -298 465 l-186 328 -14 120 c-46 384 -94 596 -171 750 -99 199 -399 561 -793 956 -298 300 -476 446 -629 518 -56 26 -58 26 -271 25 -232 -2 -264 -6 -700 -90 l-195 -38 -180 23 c-168 20 -197 21 -435 11 -309 -12 -546 -30 -1000 -75 -494 -50 -567 -62 -1060 -179 -517 -122 -725 -152 -990 -143 -91 3 -188 12 -216 20 -29 7 -94 39 -145 70 -61 36 -117 62 -159 72 -111 26 -285 29 -535 10 -214 -16 -241 -16 -385 -1 -273 28 -383 20 -441 -35 -17 -16 -33 -29 -35 -29 -13 0 -474 394 -478 408 -3 9 -34 118 -71 242 l-65 225 -28 309 -28 308 66 53 c87 69 168 160 190 211 10 22 26 76 35 119 23 100 16 268 -14 370 -45 153 -137 292 -222 335 -78 41 -175 13 -258 -74 -19 -20 -39 -36 -44 -36 -4 0 -28 9 -53 20 -52 24 -64 48 -64 123 0 115 70 202 302 375 164 121 231 183 223 204 -5 13 -17 12 -88 -8 -129 -36 -314 -102 -379 -135 -32 -16 -132 -79 -221 -139 l-162 -110 -69 -113 -69 -113 -226 -70 c-186 -58 -231 -69 -253 -62 -16 6 -28 13 -28 18 0 4 20 50 44 101 99 212 146 426 146 674 l0 100 -56 70 c-70 88 -80 99 -87 88z"></path></g></svg>